<svg xmlns="http://www.w3.org/2000/svg" width="31" height="31" viewBox="0 0 31 31">
  <defs>
    <style>
      .cls-1 {
        fill: #0f7bff;
        fill-rule: evenodd;
      }
    </style>
  </defs>
  <path id="Forma_1" data-name="Forma 1" class="cls-1" d="M586.823,1273.69l-5.51-5.51a0.584,0.584,0,0,0-.428-0.18H562.9a1.814,1.814,0,0,0-1.816,1.81v1.16a8.009,8.009,0,0,0-5.086,7.45,0.6,0.6,0,0,0,.605.6H564a0.6,0.6,0,0,0,.6-0.6v-7.39a0.606,0.606,0,0,0-.6-0.61,7.943,7.943,0,0,0-1.7.18v-0.79a0.6,0.6,0,0,1,.605-0.6h17.377v3.69a1.823,1.823,0,0,0,1.817,1.82h3.693v22.46a0.606,0.606,0,0,1-.605.61H562.9a0.606,0.606,0,0,1-.605-0.61V1292a0.606,0.606,0,1,0-1.211,0v5.18A1.823,1.823,0,0,0,562.9,1299h22.282a1.823,1.823,0,0,0,1.816-1.82v-23.07A0.584,0.584,0,0,0,586.823,1273.69Zm-23.431-2.03v6.15h-6.154A6.794,6.794,0,0,1,563.392,1271.66Zm18.7,1.85a0.606,0.606,0,0,1-.606-0.61v-2.83l3.443,3.44H582.1Zm-19.977,15.86a0.6,0.6,0,0,0-.856,0,0.6,0.6,0,0,0,0,.85,0.6,0.6,0,0,0,.856,0A0.6,0.6,0,0,0,562.119,1289.37Zm4.047-16.78a0.6,0.6,0,0,0-.605.6v6.79h-6.787a0.606,0.606,0,0,0-.605.61A8,8,0,1,0,566.166,1272.59Zm0.606,1.24a6.747,6.747,0,0,1,3.744,1.55l-3.744,3.75v-5.3Zm-0.606,13.54a6.8,6.8,0,0,1-6.76-6.18h6.76a0.639,0.639,0,0,0,.428-0.17v-0.01l4.778-4.77A6.779,6.779,0,0,1,566.166,1287.37Zm16.358-.26a1.812,1.812,0,0,0-1.673,2.52l-3.488,3.49a1.762,1.762,0,0,0-.793-0.18,1.831,1.831,0,0,0-.776.17l-2.316-2.31a1.855,1.855,0,0,0,.125-0.67,1.817,1.817,0,0,0-3.633,0,1.772,1.772,0,0,0,.167.76l-2.221,2.23a1.718,1.718,0,0,0-.781-0.18,1.815,1.815,0,1,0,1.816,1.82,1.844,1.844,0,0,0-.178-0.79l2.209-2.21a1.814,1.814,0,0,0,.805.19,1.713,1.713,0,0,0,.9-0.24l2.251,2.25a1.817,1.817,0,1,0,3.28.02l3.455-3.45a1.883,1.883,0,0,0,.855.21A1.815,1.815,0,1,0,582.524,1287.11Zm-15.389,8.25a0.605,0.605,0,1,1,0-1.21,0.626,0.626,0,0,1,.419.17,0.061,0.061,0,0,0,.007.01s0.006,0,.009.01a0.576,0.576,0,0,1,.17.42A0.6,0.6,0,0,1,567.135,1295.36Zm4.651-4.62a0.605,0.605,0,1,1,.606-0.61A0.606,0.606,0,0,1,571.786,1290.74Zm4.784,4.62a0.605,0.605,0,1,1,.6-0.61A0.606,0.606,0,0,1,576.57,1295.36Zm5.954-5.83a0.605,0.605,0,1,1,.605-0.61A0.606,0.606,0,0,1,582.524,1289.53Zm-3.026-7.3h-3.2a0.605,0.605,0,1,0,0,1.21h3.2A0.605,0.605,0,1,0,579.5,1282.23Zm3.184,0.17a0.624,0.624,0,0,0-.856,0,0.629,0.629,0,0,0-.177.43,0.607,0.607,0,0,0,.177.43,0.6,0.6,0,0,0,.856,0,0.608,0.608,0,0,0,.178-0.43A0.625,0.625,0,0,0,582.682,1282.4Zm1.016-5.99h-7.4a0.61,0.61,0,0,0,0,1.22h7.4A0.61,0.61,0,0,0,583.7,1276.41Zm0,2.91h-7.4a0.605,0.605,0,1,0,0,1.21h7.4A0.605,0.605,0,1,0,583.7,1279.32Z" transform="translate(-556 -1268)"/>
</svg>
