<svg xmlns="http://www.w3.org/2000/svg" width="46" height="46" viewBox="0 0 46 46">
  <defs>
    <style>
      .cls-1 {
        fill: #0f7bff;
        fill-rule: evenodd;
      }
    </style>
  </defs>
  <path id="Forma_1" data-name="Forma 1" class="cls-1" d="M585.2,3211.36a0.9,0.9,0,0,0,.9-0.89v-9.77a2.7,2.7,0,0,0-2.7-2.7H550.7a2.7,2.7,0,0,0-2.7,2.7v40.6a2.7,2.7,0,0,0,2.7,2.7h32.7a2.7,2.7,0,0,0,2.7-2.7v-6.61a0.9,0.9,0,1,0-1.8,0v6.61a0.9,0.9,0,0,1-.9.9H550.7a0.9,0.9,0,0,1-.9-0.9v-40.6a0.9,0.9,0,0,1,.9-0.9h32.7a0.9,0.9,0,0,1,.9.9v9.77A0.9,0.9,0,0,0,585.2,3211.36Zm-18.149-8.51a8.259,8.259,0,0,0-5.671,14.27,0.323,0.323,0,0,0,.1.09,8.245,8.245,0,0,0,11.149,0,0.323,0.323,0,0,0,.1-0.09A8.258,8.258,0,0,0,567.048,3202.85Zm0,14.74a6.477,6.477,0,0,1-3.908-1.32,4.488,4.488,0,0,1,7.815,0A6.474,6.474,0,0,1,567.048,3217.59Zm-1.438-6.83v-0.59a1.438,1.438,0,0,1,2.875,0v0.59A1.438,1.438,0,0,1,565.61,3210.76Zm6.643,4.19a6.239,6.239,0,0,0-2.647-2.22,3.2,3.2,0,0,0,.676-1.97v-0.59a3.235,3.235,0,0,0-6.469,0v0.59a3.2,3.2,0,0,0,.676,1.97,6.239,6.239,0,0,0-2.647,2.22A6.47,6.47,0,1,1,572.253,3214.95Zm-0.354,22.4h-4.851a0.9,0.9,0,0,0,0,1.8H571.9A0.9,0.9,0,0,0,571.9,3237.35Zm0-5.03H559.141a0.9,0.9,0,0,0,0,1.8H571.9A0.9,0.9,0,0,0,571.9,3232.32Zm0-5.03H559.141a0.9,0.9,0,1,0,0,1.79H571.9A0.9,0.9,0,1,0,571.9,3227.29Zm-15.96-4.77a0.907,0.907,0,0,0-1.271,0,0.9,0.9,0,0,0,0,1.27,0.907,0.907,0,0,0,1.271,0A0.9,0.9,0,0,0,555.939,3222.52Zm0,5.03a0.907,0.907,0,0,0-1.271,0,0.912,0.912,0,0,0-.264.64,0.9,0.9,0,0,0,1.8,0A0.915,0.915,0,0,0,555.939,3227.55Zm0,5.03a0.907,0.907,0,0,0-1.271,0,0.912,0.912,0,0,0-.264.64,0.889,0.889,0,0,0,.264.63,0.9,0.9,0,0,0,1.534-.63A0.915,0.915,0,0,0,555.939,3232.58Zm15.96-10.32H559.141a0.9,0.9,0,1,0,0,1.79H571.9A0.9,0.9,0,1,0,571.9,3222.26Zm20.216-12.55a3.768,3.768,0,0,0-5.155,1.38l-11.307,19.58a0.938,0.938,0,0,0-.115.35l-0.795,7.13a0.9,0.9,0,0,0,.892,1,0.877,0.877,0,0,0,.533-0.18l5.776-4.25a0.85,0.85,0,0,0,.245-0.28l11.307-19.58A3.773,3.773,0,0,0,592.115,3209.71Zm-15.359,26.6,0.416-3.72,2.6,1.5Zm4.326-3.54-3.423-1.98,9.073-15.71,3.424,1.97Zm10.858-18.81-0.886,1.54-3.424-1.98,0.886-1.53a1.929,1.929,0,0,1,1.2-.92A1.972,1.972,0,0,1,591.94,3213.96Z" transform="translate(-548 -3198)"/>
</svg>
