<svg xmlns="http://www.w3.org/2000/svg" width="39" height="36" viewBox="0 0 39 36">
  <defs>
    <style>
      .cls-1 {
        fill: #af00ff;
        fill-rule: evenodd;
      }
    </style>
  </defs>
  <path id="Forma_1" data-name="Forma 1" class="cls-1" d="M976.6,1333.2l-4.243-6.48a1.778,1.778,0,0,0-1.491-.8H952.146a1.778,1.778,0,0,0-1.49.8l-4.256,6.47a1.751,1.751,0,0,0,.163,2.13l13.609,15.09a1.8,1.8,0,0,0,1.327.59h0a1.8,1.8,0,0,0,1.327-.59l13.611-15.09A1.741,1.741,0,0,0,976.6,1333.2Zm-6.594-5.77-3.568,5.45-3.57-5.45h7.138Zm-4.968,6.08h-7.08l3.54-5.4Zm-4.909-6.08-3.561,5.43-3.559-5.43h7.12Zm-8.529.62,3.578,5.46h-7.17Zm-3.271,6.96H956l4.053,13Zm13.169,12.54-3.908-12.54h7.816Zm1.449,0.46L967,1335.02h7.667Zm4.891-14.5,3.575-5.46,3.579,5.46h-7.154Zm-23.529,0h-1.548a0.75,0.75,0,1,0,0,1.5h1.548A0.75,0.75,0,1,0,944.31,1333.51Zm35.928,0h-1.549a0.75,0.75,0,1,0,0,1.5h1.549A0.75,0.75,0,1,0,980.238,1333.51Zm-4.94-12.87a0.775,0.775,0,0,0-1.077,0l-2.53,2.5a0.759,0.759,0,0,0,1.077,1.07l2.53-2.5A0.752,0.752,0,0,0,975.3,1320.64Zm-23.956,2.49-2.53-2.5a0.775,0.775,0,0,0-1.077,0,0.752,0.752,0,0,0,0,1.07l2.53,2.5a0.769,0.769,0,0,0,1.077,0A0.752,0.752,0,0,0,951.342,1323.13Zm10.177-8.13a0.758,0.758,0,0,0-.761.75v4.91a0.762,0.762,0,0,0,1.523,0v-4.91A0.759,0.759,0,0,0,961.519,1315Zm0.538,7.67a0.769,0.769,0,0,0-1.077,0,0.741,0.741,0,0,0,0,1.06,0.769,0.769,0,0,0,1.077,0A0.739,0.739,0,0,0,962.057,1322.67Z" transform="translate(-942 -1315)"/>
</svg>
