<svg xmlns="http://www.w3.org/2000/svg" width="47" height="47" viewBox="0 0 47 47">
  <defs>
    <style>
      .cls-1 {
        fill: #0f7bff;
        fill-rule: evenodd;
      }
    </style>
  </defs>
  <path id="Forma_1" data-name="Forma 1" class="cls-1" d="M954.92,3198.27a0.92,0.92,0,1,0,.269.65A0.93,0.93,0,0,0,954.92,3198.27ZM985,3215.12a0.914,0.914,0,0,0-.378-0.7l-4.577-3.31v-10.36a2.752,2.752,0,0,0-2.754-2.75H957.874a0.92,0.92,0,0,0,0,1.84h19.415a0.916,0.916,0,0,1,.918.91v18.03L967,3227.93l-2.811-2.04a4.6,4.6,0,0,0-5.382,0L956,3227.93l-11.205-9.15v-18.03a0.916,0.916,0,0,1,.918-0.91h5a0.92,0.92,0,0,0,0-1.84h-5a2.752,2.752,0,0,0-2.754,2.75v10.36l-4.577,3.31h0a0.926,0.926,0,0,0-.381.75v25.24a4.6,4.6,0,0,0,4.59,4.59h37.82a4.6,4.6,0,0,0,4.59-4.59v-25.24C985,3215.15,985,3215.13,985,3215.12Zm-4.955-1.74,2.534,1.83-2.534,2.07v-3.9Zm-37.086,0v3.9l-2.534-2.07Zm-3.121,3.72,14.623,11.94-14.623,10.58V3217.1Zm40.574,26.06H942.59a2.764,2.764,0,0,1-2.449-1.49l19.745-14.29a2.743,2.743,0,0,1,3.228,0l15.725,11.38H969.67a0.915,0.915,0,1,0,0,1.83h11.706l1.483,1.08A2.764,2.764,0,0,1,980.41,3243.16Zm2.754-3.54-14.623-10.58,14.623-11.94v22.52Zm-17.14-30.67a0.934,0.934,0,0,0-1.3,0l-4.5,4.51-1.947-1.95a0.919,0.919,0,1,0-1.3,1.3l2.6,2.6a0.94,0.94,0,0,0,1.3,0l5.154-5.16A0.921,0.921,0,0,0,966.024,3208.95Zm-4.524-5.99a9.22,9.22,0,1,0,9.224,9.22A9.229,9.229,0,0,0,961.5,3202.96Zm0,16.61a7.39,7.39,0,1,1,7.388-7.39A7.4,7.4,0,0,1,961.5,3219.57Zm4.658,19.46a0.915,0.915,0,0,0-1.3,0,0.908,0.908,0,0,0,0,1.29,0.915,0.915,0,0,0,1.3,0A0.908,0.908,0,0,0,966.158,3239.03Z" transform="translate(-938 -3198)"/>
</svg>
