<svg xmlns="http://www.w3.org/2000/svg" width="33" height="33" viewBox="0 0 33 33">
  <defs>
    <style>
      .cls-1 {
        fill: #0fff2d;
        fill-rule: evenodd;
      }
    </style>
  </defs>
  <path id="Forma_1" data-name="Forma 1" class="cls-1" d="M1346.88,1266.19a0.66,0.66,0,0,0-.46-0.19,0.649,0.649,0,0,0-.64.64,0.66,0.66,0,0,0,.19.46,0.636,0.636,0,0,0,.45.19,0.649,0.649,0,0,0,.65-0.65A0.636,0.636,0,0,0,1346.88,1266.19Zm21.12,11.83a0.632,0.632,0,0,0-.27-0.49l-3.21-2.33v-7.27a1.938,1.938,0,0,0-1.93-1.93h-13.64a0.645,0.645,0,0,0,0,1.29h13.64a0.644,0.644,0,0,1,.64.64v12.66l-7.87,6.42-1.97-1.43a3.244,3.244,0,0,0-3.78,0l-1.97,1.43-7.87-6.42v-12.66a0.644,0.644,0,0,1,.64-0.64h3.52a0.645,0.645,0,0,0,0-1.29h-3.52a1.938,1.938,0,0,0-1.93,1.93v7.27l-3.21,2.33h0a0.658,0.658,0,0,0-.27.52v17.73a3.231,3.231,0,0,0,3.22,3.22h26.56a3.231,3.231,0,0,0,3.22-3.22v-17.76Zm-3.48-1.22,1.78,1.28-1.78,1.45v-2.73Zm-26.04,0v2.73l-1.78-1.45Zm-2.19,2.61,10.27,8.38-10.27,7.43v-15.81Zm28.49,18.3h-26.56a1.938,1.938,0,0,1-1.72-1.05l13.87-10.03a1.921,1.921,0,0,1,2.26,0l11.04,7.99h-6.43a0.64,0.64,0,1,0,0,1.28h8.22l1.04,0.76A1.938,1.938,0,0,1,1364.78,1297.71Zm1.93-2.49-10.27-7.43,10.27-8.38v15.81Zm-12.03-21.53a0.658,0.658,0,0,0-.92,0l-3.16,3.16-1.37-1.36a0.628,0.628,0,0,0-.91,0,0.646,0.646,0,0,0,0,.91l1.83,1.82a0.636,0.636,0,0,0,.45.19,0.66,0.66,0,0,0,.46-0.19l3.62-3.62A0.646,0.646,0,0,0,1354.68,1273.69Zm-3.18-4.21a6.475,6.475,0,1,0,6.48,6.48A6.483,6.483,0,0,0,1351.5,1269.48Zm0,11.66a5.185,5.185,0,1,1,5.19-5.19A5.19,5.19,0,0,1,1351.5,1281.14Zm3.27,13.66a0.65,0.65,0,0,0-.46-0.18,0.627,0.627,0,0,0-.45.18,0.652,0.652,0,0,0,0,.92,0.627,0.627,0,0,0,.45.18,0.65,0.65,0,0,0,.46-0.18A0.652,0.652,0,0,0,1354.77,1294.8Z" transform="translate(-1335 -1266)"/>
</svg>
