<svg xmlns="http://www.w3.org/2000/svg" width="61" height="61" viewBox="0 0 61 61">
  <defs>
    <style>
      .cls-1 {
        fill: #0f7bff;
        fill-rule: evenodd;
      }
    </style>
  </defs>
  <path id="icon" class="cls-1" d="M1381.77,3705.24a1.167,1.167,0,0,0-1.01-1.01,31.713,31.713,0,0,0-26.23,8.99l-7.71,7.68-11.14,1.43a1.217,1.217,0,0,0-.67.33l-10.73,10.7a1.142,1.142,0,0,0,.61,1.94l8.11,1.5,1.6,1.59-3.4,1.83a1.152,1.152,0,0,0-.26,1.83l12.87,12.83a1.15,1.15,0,0,0,.82.34,0.875,0.875,0,0,0,.16-0.02,1.16,1.16,0,0,0,.86-0.59l1.83-3.38,1.6,1.59,1.5,8.08a1.154,1.154,0,0,0,.8.89,0.974,0.974,0,0,0,.34.06,1.167,1.167,0,0,0,.82-0.34l10.73-10.69a1.184,1.184,0,0,0,.33-0.67l1.44-11.09,7.71-7.69A31.433,31.433,0,0,0,1381.77,3705.24Zm-48.59,29.25-5.71-1.05,8.9-8.87,7.77-1Zm11.17,17.67-10.68-10.65,2.64-1.42,9.47,9.44Zm17-2.7-8.89,8.87-1.06-5.69,10.96-10.91Zm9.76-19.72-20.96,20.89-14.95-14.9,20.96-20.88a29.594,29.594,0,0,1,10.85-6.84,13.812,13.812,0,0,0,3.8,7.14,14,14,0,0,0,7.16,3.79A29.194,29.194,0,0,1,1371.11,3729.74Zm7.56-13.02a11.518,11.518,0,0,1-9.44-9.4,29.8,29.8,0,0,1,10.34-.9A29.556,29.556,0,0,1,1378.67,3716.72Zm-23.64,4.26a7.008,7.008,0,0,0,9.93,9.89h0A7.007,7.007,0,0,0,1355.03,3720.98Zm8.3,8.26a4.744,4.744,0,0,1-6.66,0A4.7,4.7,0,1,1,1363.33,3729.24Zm-27.27,20.75a1.153,1.153,0,0,0-1.63,0l-9.93,9.89a1.153,1.153,0,0,0,0,1.63,1.185,1.185,0,0,0,.82.34,1.2,1.2,0,0,0,.82-0.34l9.92-9.89A1.135,1.135,0,0,0,1336.06,3749.99Zm1.53,3.15-4.47,4.46a1.153,1.153,0,0,0,1.63,1.63l4.48-4.46a1.153,1.153,0,0,0,0-1.63A1.165,1.165,0,0,0,1337.59,3753.14Zm-6.04,6.49a1.174,1.174,0,0,0-1.09.77,1.156,1.156,0,0,0,1.75,1.33,1.147,1.147,0,0,0,.41-1.38A1.166,1.166,0,0,0,1331.55,3759.63Zm1.07,0.72c0.03,0.06-.03-0.07,0,0h0Zm-4.34,2.07-0.62.61a1.156,1.156,0,0,0,1.64,1.63l0.62-.61a1.153,1.153,0,0,0,0-1.63A1.165,1.165,0,0,0,1328.28,3762.42Zm-0.83-10.15a1.165,1.165,0,0,0-1.64,0l-4.47,4.46a1.135,1.135,0,0,0,0,1.63,1.171,1.171,0,0,0,1.63,0l4.48-4.46A1.153,1.153,0,0,0,1327.45,3752.27Zm1.84-.44a1.175,1.175,0,0,0,.87-1.01,1.154,1.154,0,0,0-.63-1.14,1.154,1.154,0,0,0-1.48,1.67c-0.01-.02-0.02-0.03,0,0s0.01,0.02,0,0A1.179,1.179,0,0,0,1329.29,3751.83Zm2.99-2.75,0.62-.62a1.153,1.153,0,0,0,0-1.63,1.165,1.165,0,0,0-1.64,0l-0.61.62a1.153,1.153,0,0,0,0,1.63A1.147,1.147,0,0,0,1332.28,3749.08Z" transform="translate(-1321 -3704)"/>
</svg>
