<svg xmlns="http://www.w3.org/2000/svg" width="40" height="52" viewBox="0 0 40 52">
  <defs>
    <style>
      .cls-1 {
        fill: #0f7bff;
        fill-rule: evenodd;
      }
    </style>
  </defs>
  <path id="Forma_1" data-name="Forma 1" class="cls-1" d="M1351,3197.72a2.377,2.377,0,1,0,2.29,2.38A2.342,2.342,0,0,0,1351,3197.72Zm0,3.23a0.837,0.837,0,0,1-.82-0.85,0.821,0.821,0,1,1,1.64,0A0.837,0.837,0,0,1,1351,3200.95Zm10.38,11.05a5.786,5.786,0,0,0-5.69-4.43,6.816,6.816,0,0,1-9.38,0,5.806,5.806,0,0,0-5.7,4.43c-0.33,1.4-.33,3.65,1.56,6.42,1.7,2.49,4.55,4.84,8.49,6.98a0.687,0.687,0,0,0,.68,0c3.94-2.14,6.79-4.49,8.49-6.98C1361.72,3215.65,1361.72,3213.4,1361.38,3212Zm-2.75,5.54a22.061,22.061,0,0,1-7.63,6.33,22.061,22.061,0,0,1-7.63-6.33,6.6,6.6,0,0,1-1.33-5.18,4.264,4.264,0,0,1,4.27-3.26,5.958,5.958,0,0,1,4.18,1.91,0.707,0.707,0,0,0,1.02,0,5.958,5.958,0,0,1,4.18-1.91,4.272,4.272,0,0,1,4.27,3.26A6.6,6.6,0,0,1,1358.63,3217.54Zm-12.76-4.52a0.747,0.747,0,0,0-.73.76v0.96a0.735,0.735,0,1,0,1.47,0v-0.96A0.749,0.749,0,0,0,1345.87,3213.02Zm10.26,0a0.749,0.749,0,0,0-.74.76v0.96a0.735,0.735,0,1,0,1.47,0v-0.96A0.747,0.747,0,0,0,1356.13,3213.02Zm-3.38,1.08a0.715,0.715,0,0,0-1.04.07,0.948,0.948,0,0,1-1.42,0,0.715,0.715,0,0,0-1.04-.07,0.779,0.779,0,0,0-.07,1.07,2.392,2.392,0,0,0,3.64,0A0.779,0.779,0,0,0,1352.75,3214.1Zm7.67,22.03h-18.84a0.761,0.761,0,0,0,0,1.52h18.84A0.761,0.761,0,0,0,1360.42,3236.13Zm0-4.03h-18.84a0.756,0.756,0,0,0-.73.77,0.747,0.747,0,0,0,.73.76h18.84a0.747,0.747,0,0,0,.73-0.76A0.756,0.756,0,0,0,1360.42,3232.1Zm0-4.02h-18.84a0.761,0.761,0,0,0,0,1.52h18.84A0.761,0.761,0,0,0,1360.42,3228.08Zm9.85-19.73a0.747,0.747,0,0,0,.73-0.76v-4.77a4.6,4.6,0,0,0-4.5-4.67h-3.95a2.181,2.181,0,0,0-2.04-1.5h-5.17a1.731,1.731,0,0,1-1.16-.44,4.784,4.784,0,0,0-6.36,0,1.731,1.731,0,0,1-1.16.44h-5.17a2.181,2.181,0,0,0-2.04,1.5h-3.95a4.6,4.6,0,0,0-4.5,4.67v39.51a4.59,4.59,0,0,0,4.5,4.67h31a4.59,4.59,0,0,0,4.5-4.67v-31.69a0.735,0.735,0,1,0-1.47,0v31.69a3.094,3.094,0,0,1-3.03,3.15h-31a3.094,3.094,0,0,1-3.03-3.15v-39.51a3.091,3.091,0,0,1,3.03-3.14h3.83v2.31h-3.79a0.749,0.749,0,0,0-.74.76v29.01a0.735,0.735,0,1,0,1.47,0v-28.25h3.14a0.01,0.01,0,0,0,.01.01,2.246,2.246,0,0,0,.99,1.3,2.071,2.071,0,0,0,1.08.3h19.02a2.051,2.051,0,0,0,1.32-.47,2.2,2.2,0,0,0,.75-1.13,0.01,0.01,0,0,0,.01-0.01h3.14v38.13h-29.46v-6.83a0.735,0.735,0,1,0-1.47,0v7.59a0.749,0.749,0,0,0,.74.76h30.92a0.749,0.749,0,0,0,.74-0.76v-39.65a0.749,0.749,0,0,0-.74-0.76h-3.79v-2.31h3.83a3.091,3.091,0,0,1,3.03,3.14v4.77A0.749,0.749,0,0,0,1370.27,3208.35Zm-9.06-5.6a0.754,0.754,0,0,1-.7.85h-19.02a0.761,0.761,0,0,1-.7-0.85v-3.85a0.713,0.713,0,0,1,.7-0.72h5.16a3.205,3.205,0,0,0,2.12-.81,3.35,3.35,0,0,1,4.46,0,3.2,3.2,0,0,0,2.11.81h5.17a0.713,0.713,0,0,1,.7.72v3.85h0Z" transform="translate(-1331 -3195)"/>
</svg>
