<svg xmlns="http://www.w3.org/2000/svg" width="55" height="55" viewBox="0 0 55 55">
  <defs>
    <style>
      .cls-1 {
        fill: #0f7bff;
        fill-rule: evenodd;
      }
    </style>
  </defs>
  <path id="icon" class="cls-1" d="M988.992,3708.03a0.96,0.96,0,0,0-.037-0.18,1.5,1.5,0,0,0-.078-0.2,1.087,1.087,0,0,0-.044-0.1c-0.013-.02-0.034-0.04-0.05-0.06a1.827,1.827,0,0,0-.135-0.15,1.116,1.116,0,0,0-.154-0.13,0.271,0.271,0,0,0-.054-0.05c-0.033-.02-0.071-0.02-0.105-0.04a1.489,1.489,0,0,0-.2-0.08,0.538,0.538,0,0,0-.176-0.03,0.734,0.734,0,0,0-.209-0.01,0.649,0.649,0,0,0-.194.03c-0.041.01-.082,0.01-0.123,0.02l-52.623,17.94a1.2,1.2,0,0,0-.042,2.25l24.586,9.44,10.624,24.6a1.2,1.2,0,0,0,1.1.72h0.059a1.208,1.208,0,0,0,1.08-.83l16.744-52.63a0.761,0.761,0,0,0,.016-0.11,1.144,1.144,0,0,0,.027-0.2A1.219,1.219,0,0,0,988.992,3708.03Zm-50.286,18.16,44.63-15.22-23.381,23.38Zm32.2,31.2-9.233-21.37,23.516-23.52Zm-18.119-14.18a1.209,1.209,0,0,0-1.691,0l-16.744,16.75a1.193,1.193,0,0,0,0,1.69,1.2,1.2,0,0,0,1.691,0l16.744-16.74A1.207,1.207,0,0,0,952.786,3743.21Zm3.092,8.38-8.371,8.37a1.2,1.2,0,0,0,.845,2.04,1.207,1.207,0,0,0,.846-0.35l8.372-8.37A1.2,1.2,0,0,0,955.878,3751.59Zm-20.681-2.75a1.163,1.163,0,0,0,.845-0.35l8.372-8.37a1.2,1.2,0,1,0-1.691-1.69l-8.372,8.37a1.193,1.193,0,0,0,0,1.69A1.164,1.164,0,0,0,935.2,3748.84Z" transform="translate(-934 -3707)"/>
</svg>
